<mxfile host="app.diagrams.net" modified="2024-02-08T15:23:20.805Z" agent="Mozilla/5.0 (Windows NT 10.0; Win64; x64) AppleWebKit/537.36 (KHTML, like Gecko) Chrome/121.0.0.0 Safari/537.36" etag="x8nhqbatUAZhEwTpopz7" version="21.8.2" type="github">
  <diagram name="Page-1" id="1y_2GpAju2dID3cllrDE">
    <mxGraphModel dx="1562" dy="818" grid="1" gridSize="10" guides="1" tooltips="1" connect="1" arrows="1" fold="1" page="1" pageScale="1" pageWidth="850" pageHeight="1100" math="0" shadow="0">
      <root>
        <mxCell id="0" />
        <mxCell id="1" parent="0" />
        <mxCell id="5AAgcWpdmJfIqrZNKJTV-2" value="MS Fabric Service" style="swimlane;whiteSpace=wrap;html=1;" vertex="1" parent="1">
          <mxGeometry x="30" y="100" width="540" height="480" as="geometry" />
        </mxCell>
        <mxCell id="5AAgcWpdmJfIqrZNKJTV-1" value="Product Catalog&lt;br&gt;Service (Stateless)" style="rounded=0;whiteSpace=wrap;html=1;" vertex="1" parent="5AAgcWpdmJfIqrZNKJTV-2">
          <mxGeometry x="350" y="280" width="120" height="60" as="geometry" />
        </mxCell>
        <mxCell id="5AAgcWpdmJfIqrZNKJTV-4" value="Identity Service" style="rounded=0;whiteSpace=wrap;html=1;" vertex="1" parent="5AAgcWpdmJfIqrZNKJTV-2">
          <mxGeometry x="350" y="370" width="120" height="60" as="geometry" />
        </mxCell>
        <mxCell id="5AAgcWpdmJfIqrZNKJTV-22" style="edgeStyle=orthogonalEdgeStyle;rounded=0;orthogonalLoop=1;jettySize=auto;html=1;endArrow=oval;endFill=0;" edge="1" parent="5AAgcWpdmJfIqrZNKJTV-2" source="5AAgcWpdmJfIqrZNKJTV-5">
          <mxGeometry relative="1" as="geometry">
            <mxPoint x="200" y="210" as="targetPoint" />
          </mxGeometry>
        </mxCell>
        <mxCell id="5AAgcWpdmJfIqrZNKJTV-5" value="Basket Service (Statefull)" style="rounded=0;whiteSpace=wrap;html=1;" vertex="1" parent="5AAgcWpdmJfIqrZNKJTV-2">
          <mxGeometry x="30" y="180" width="120" height="60" as="geometry" />
        </mxCell>
        <mxCell id="5AAgcWpdmJfIqrZNKJTV-24" style="edgeStyle=orthogonalEdgeStyle;rounded=0;orthogonalLoop=1;jettySize=auto;html=1;endArrow=halfCircle;endFill=0;targetPerimeterSpacing=0;" edge="1" parent="5AAgcWpdmJfIqrZNKJTV-2" source="5AAgcWpdmJfIqrZNKJTV-6">
          <mxGeometry relative="1" as="geometry">
            <mxPoint x="200" y="210" as="targetPoint" />
          </mxGeometry>
        </mxCell>
        <mxCell id="5AAgcWpdmJfIqrZNKJTV-6" value="Api Gateway" style="rounded=0;whiteSpace=wrap;html=1;" vertex="1" parent="5AAgcWpdmJfIqrZNKJTV-2">
          <mxGeometry x="350" y="180" width="120" height="60" as="geometry" />
        </mxCell>
        <mxCell id="5AAgcWpdmJfIqrZNKJTV-25" style="edgeStyle=orthogonalEdgeStyle;rounded=0;orthogonalLoop=1;jettySize=auto;html=1;endArrow=oval;endFill=0;" edge="1" parent="5AAgcWpdmJfIqrZNKJTV-2" source="5AAgcWpdmJfIqrZNKJTV-13">
          <mxGeometry relative="1" as="geometry">
            <mxPoint x="190" y="330" as="targetPoint" />
          </mxGeometry>
        </mxCell>
        <mxCell id="5AAgcWpdmJfIqrZNKJTV-13" value="Order&lt;br style=&quot;border-color: var(--border-color);&quot;&gt;&lt;span style=&quot;&quot;&gt;Service (Statefull)&lt;/span&gt;" style="html=1;rounded=0;" vertex="1" parent="5AAgcWpdmJfIqrZNKJTV-2">
          <mxGeometry x="30" y="300" width="120" height="60" as="geometry" />
        </mxCell>
        <mxCell id="5AAgcWpdmJfIqrZNKJTV-20" style="edgeStyle=orthogonalEdgeStyle;rounded=0;orthogonalLoop=1;jettySize=auto;html=1;endArrow=halfCircle;endFill=0;" edge="1" parent="5AAgcWpdmJfIqrZNKJTV-2" source="5AAgcWpdmJfIqrZNKJTV-5">
          <mxGeometry relative="1" as="geometry">
            <mxPoint x="190" y="330" as="targetPoint" />
            <Array as="points">
              <mxPoint x="90" y="260" />
              <mxPoint x="260" y="260" />
              <mxPoint x="260" y="330" />
            </Array>
          </mxGeometry>
        </mxCell>
        <mxCell id="5AAgcWpdmJfIqrZNKJTV-21" style="edgeStyle=orthogonalEdgeStyle;rounded=0;orthogonalLoop=1;jettySize=auto;html=1;endArrow=halfCircle;endFill=0;" edge="1" parent="5AAgcWpdmJfIqrZNKJTV-2" source="5AAgcWpdmJfIqrZNKJTV-6">
          <mxGeometry relative="1" as="geometry">
            <mxPoint x="190" y="330" as="targetPoint" />
            <Array as="points">
              <mxPoint x="274" y="240" />
              <mxPoint x="274" y="330" />
            </Array>
          </mxGeometry>
        </mxCell>
        <mxCell id="5AAgcWpdmJfIqrZNKJTV-23" value="IBasketService" style="text;html=1;align=center;verticalAlign=middle;resizable=0;points=[];autosize=1;strokeColor=none;fillColor=none;fontSize=10;" vertex="1" parent="5AAgcWpdmJfIqrZNKJTV-2">
          <mxGeometry x="155" y="179" width="90" height="30" as="geometry" />
        </mxCell>
        <mxCell id="5AAgcWpdmJfIqrZNKJTV-26" value="IOrderService" style="text;html=1;align=center;verticalAlign=middle;resizable=0;points=[];autosize=1;strokeColor=none;fillColor=none;fontSize=10;" vertex="1" parent="5AAgcWpdmJfIqrZNKJTV-2">
          <mxGeometry x="149" y="299" width="90" height="30" as="geometry" />
        </mxCell>
        <mxCell id="5AAgcWpdmJfIqrZNKJTV-10" style="edgeStyle=orthogonalEdgeStyle;rounded=0;orthogonalLoop=1;jettySize=auto;html=1;entryX=1;entryY=0.5;entryDx=0;entryDy=0;" edge="1" parent="1" source="5AAgcWpdmJfIqrZNKJTV-7" target="5AAgcWpdmJfIqrZNKJTV-6">
          <mxGeometry relative="1" as="geometry" />
        </mxCell>
        <mxCell id="5AAgcWpdmJfIqrZNKJTV-11" style="edgeStyle=orthogonalEdgeStyle;rounded=0;orthogonalLoop=1;jettySize=auto;html=1;entryX=1;entryY=0.5;entryDx=0;entryDy=0;" edge="1" parent="1" source="5AAgcWpdmJfIqrZNKJTV-7" target="5AAgcWpdmJfIqrZNKJTV-1">
          <mxGeometry relative="1" as="geometry">
            <Array as="points">
              <mxPoint x="610" y="310" />
              <mxPoint x="610" y="410" />
            </Array>
          </mxGeometry>
        </mxCell>
        <mxCell id="5AAgcWpdmJfIqrZNKJTV-12" style="edgeStyle=orthogonalEdgeStyle;rounded=0;orthogonalLoop=1;jettySize=auto;html=1;entryX=1;entryY=0.5;entryDx=0;entryDy=0;" edge="1" parent="1" source="5AAgcWpdmJfIqrZNKJTV-7" target="5AAgcWpdmJfIqrZNKJTV-4">
          <mxGeometry relative="1" as="geometry">
            <Array as="points">
              <mxPoint x="610" y="310" />
              <mxPoint x="610" y="500" />
            </Array>
          </mxGeometry>
        </mxCell>
        <mxCell id="5AAgcWpdmJfIqrZNKJTV-7" value="Ocelot Api Gateway" style="rounded=0;whiteSpace=wrap;html=1;" vertex="1" parent="1">
          <mxGeometry x="680" y="280" width="120" height="60" as="geometry" />
        </mxCell>
        <mxCell id="5AAgcWpdmJfIqrZNKJTV-9" style="edgeStyle=orthogonalEdgeStyle;rounded=0;orthogonalLoop=1;jettySize=auto;html=1;entryX=0.5;entryY=1;entryDx=0;entryDy=0;" edge="1" parent="1" source="5AAgcWpdmJfIqrZNKJTV-8" target="5AAgcWpdmJfIqrZNKJTV-7">
          <mxGeometry relative="1" as="geometry" />
        </mxCell>
        <mxCell id="5AAgcWpdmJfIqrZNKJTV-8" value="Angular Client" style="rounded=0;whiteSpace=wrap;html=1;" vertex="1" parent="1">
          <mxGeometry x="680" y="480" width="120" height="60" as="geometry" />
        </mxCell>
        <mxCell id="5AAgcWpdmJfIqrZNKJTV-16" value="Azure storage" style="shape=cylinder3;whiteSpace=wrap;html=1;boundedLbl=1;backgroundOutline=1;size=15;" vertex="1" parent="1">
          <mxGeometry x="260" y="630" width="60" height="80" as="geometry" />
        </mxCell>
        <mxCell id="5AAgcWpdmJfIqrZNKJTV-17" style="edgeStyle=orthogonalEdgeStyle;rounded=0;orthogonalLoop=1;jettySize=auto;html=1;entryX=1;entryY=0.5;entryDx=0;entryDy=0;entryPerimeter=0;exitX=0.5;exitY=1;exitDx=0;exitDy=0;" edge="1" parent="1" source="5AAgcWpdmJfIqrZNKJTV-4" target="5AAgcWpdmJfIqrZNKJTV-16">
          <mxGeometry relative="1" as="geometry" />
        </mxCell>
        <mxCell id="5AAgcWpdmJfIqrZNKJTV-18" style="edgeStyle=orthogonalEdgeStyle;rounded=0;orthogonalLoop=1;jettySize=auto;html=1;entryX=1;entryY=0;entryDx=0;entryDy=15;entryPerimeter=0;" edge="1" parent="1" source="5AAgcWpdmJfIqrZNKJTV-1" target="5AAgcWpdmJfIqrZNKJTV-16">
          <mxGeometry relative="1" as="geometry" />
        </mxCell>
      </root>
    </mxGraphModel>
  </diagram>
</mxfile>
